<svg xmlns="http://www.w3.org/2000/svg" xmlns:xlink="http://www.w3.org/1999/xlink" version="1.1" id="Layer_1" x="0px" y="0px" viewBox="0 0 200 200" style="enable-background:new 0 0 200 200;" xml:space="preserve">
<style type="text/css">
	.st0{fill:#C12032;}
	.st1{fill:#FFFFFF;}
</style>
<g>
	<g>
		<path class="st0" d="M93.22,61.39c23.25-0.02,42.34,18.89,42.21,42.13c-0.13,23.46-18.75,41.84-42.17,42.05    C70.08,145.78,51.15,126.85,51,103.5C50.85,80.37,69.85,61.41,93.22,61.39z M103.97,103.53c0.02-5.97-4.71-10.75-10.66-10.77    c-6.05-0.03-10.96,4.8-10.93,10.74c0.02,5.85,4.88,10.69,10.8,10.76C99.01,114.33,103.95,109.42,103.97,103.53z M90.56,70.74    c-10.84,0.82-19.27,5.53-25.19,14.48c-3.35,5.07-4.99,10.72-4.94,16.82c0.01,1.8,1.38,3.25,3.04,3.4c1.7,0.15,3.36-1.21,3.64-3.02    c0.06-0.36,0.04-0.74,0.06-1.11c0.4-7.21,3.23-13.26,8.76-17.96c4.39-3.73,9.53-5.6,15.28-5.8c2.15-0.08,3.59-1.12,3.83-2.8    c0.24-1.66-0.35-2.99-1.91-3.62C92.31,70.79,91.33,70.84,90.56,70.74z"/>
		<path class="st0" d="M64.16,139.63c19.45,13.27,38.61,13.26,57.95,0.08c0.03,0.42,0.1,0.88,0.1,1.34    c0.01,4.03,0.03,8.05-0.01,12.08c-0.02,2.56-1.45,4.16-3.96,4.55c-0.55,0.08-1.11,0.1-1.66,0.1c-15.55,0-31.09,0.01-46.64,0    c-0.8,0-1.62-0.05-2.4-0.21c-1.81-0.37-3.31-1.9-3.35-3.74C64.1,149.12,64.16,144.43,64.16,139.63z"/>
		<path class="st0" d="M124.68,150.34c0-2.64-0.09-4.85,0.06-7.04c0.04-0.6,0.73-1.24,1.25-1.71c8.75-8,14.86-17.62,18.22-29.01    c0.33-1.11,0.09-1.66-0.74-2.32c-3.15-2.51-4.16-6.71-2.55-10.35c1.67-3.79,5.74-5.93,9.91-5.21c3.72,0.64,6.72,3.92,7.11,7.79    c0.43,4.19-1.71,7.95-5.59,9.21c-1.61,0.52-2.16,1.46-2.58,2.89C145.51,129.14,137.14,140.86,124.68,150.34z"/>
	</g>
	<path class="st1" d="M28.99,79.39V57.52c0-9.78,3.81-14.93,11.97-15.12c0,0,0.21,0,0.28-0.01c2.31-0.33,3.95-2.54,3.95-4.98   c0-2.44-1.7-4.4-3.95-4.98c0,0-0.49-0.17-2.05-0.11c-14.96,0.82-22.52,8.93-22.52,24.49v21.94c0,10.4-3.99,15.86-11.97,16.38v0.03   c-2.6,0-4.7,2.11-4.7,4.7c0,2.6,2.11,4.7,4.7,4.7v0.03c7.98,0.43,11.97,5.79,11.97,16.1v22.51c0,15.05,7.25,23.03,21.56,24.14   c1.13,0.05,2.02-0.15,3.01-0.49c1.76-0.61,2.81-2.53,2.81-4.52s-1.09-3.83-2.81-4.52c-0.74-0.3-1.95-0.56-2.4-0.62   c-3.08-0.4-5.43-1.48-6.97-3.33c-1.92-2.3-2.88-6.4-2.88-12.29v-21.51c0-11.06-3.85-17.76-11.54-20.09v-0.36   C25.15,97.1,28.99,90.35,28.99,79.39z"/>
	<path class="st1" d="M171.01,79.39V57.52c0-9.78-3.81-14.93-11.97-15.12c0,0-0.21,0-0.28-0.01c-2.31-0.33-3.95-2.54-3.95-4.98   c0-2.44,1.7-4.4,3.95-4.98c0,0,0.49-0.17,2.05-0.11c14.96,0.82,22.52,8.93,22.52,24.49v21.94c0,10.4,3.99,15.86,11.97,16.38v0.03   c2.6,0,4.7,2.11,4.7,4.7c0,2.6-2.11,4.7-4.7,4.7v0.03c-7.98,0.43-11.97,5.79-11.97,16.1v22.51c0,15.05-7.25,23.03-21.56,24.14   c-1.13,0.05-2.02-0.15-3.01-0.49c-1.76-0.61-2.81-2.53-2.81-4.52s1.09-3.83,2.81-4.52c0.74-0.3,1.95-0.56,2.4-0.62   c3.08-0.4,5.43-1.48,6.97-3.33c1.92-2.3,2.88-6.4,2.88-12.29v-21.51c0-11.06,3.85-17.76,11.54-20.09v-0.36   C174.85,97.1,171.01,90.35,171.01,79.39z"/>
</g>
</svg>